Coordinates
version=1
nRows=14
nColumns=40
inDegrees=yes

Units are S.I. units (second, meters, Newtons, ...)
Angles are in degrees.

endheader
time	pelvis_tilt	pelvis_list	pelvis_rotation	pelvis_tx	pelvis_ty	pelvis_tz	hip_flexion_r	hip_adduction_r	hip_rotation_r	knee_angle_r	knee_angle_r_beta	ankle_angle_r	subtalar_angle_r	mtp_angle_r	hip_flexion_l	hip_adduction_l	hip_rotation_l	knee_angle_l	knee_angle_l_beta	ankle_angle_l	subtalar_angle_l	mtp_angle_l	lumbar_extension	lumbar_bending	lumbar_rotation	arm_flex_r	arm_add_r	arm_rot_r	elbow_flex_r	pro_sup_r	wrist_flex_r	wrist_dev_r	arm_flex_l	arm_add_l	arm_rot_l	elbow_flex_l	pro_sup_l	wrist_flex_l	wrist_dev_l
     14.18750000	     -6.42097383	     -4.35040014	      1.52735272	      1.04578860	      0.91942316	      0.43332713	      4.88388857	     -3.89364523	    -14.06490022	     32.75146530	     32.75146530	     13.08420017	     -6.39827212	     -8.43653911	     28.86551691	     -6.17571633	     -3.84456153	     24.39668666	     24.39668666	      5.34668815	    -11.86619756	      2.06555337	     -9.59253272	      5.22694799	      4.25060270	     39.03273980	    -14.95509404	      0.65172129	    118.61356354	     44.46804625	      0.00000000	      0.00000000	    -18.62681896	     -8.23377576	     13.44618957	     31.61647982	     43.89333656	      0.00000000	      0.00000000
     14.19885714	     -6.45087049	     -4.20665495	      1.24410446	      1.04522908	      0.92095370	      0.43102362	      6.84912851	     -4.59544276	    -13.20491464	     36.75346369	     36.75346369	     11.21507787	     -8.63444681	     -8.79006340	     28.02944154	     -5.99256364	     -4.25821872	     23.94252523	     23.94252523	      5.76273713	    -11.70595655	      1.80518406	     -9.60904363	      5.14002749	      4.19938916	     36.51095000	    -14.98946768	      0.56805031	    117.45721800	     44.49741782	      0.00000000	      0.00000000	    -17.37532600	     -8.37578655	     13.14897268	     31.96907814	     43.96779337	      0.00000000	      0.00000000
     14.21021429	     -6.46221336	     -4.12580030	      0.93940408	      1.04448717	      0.92234264	      0.42894924	      8.94195730	     -5.14159336	    -12.24463917	     40.80506224	     40.80506224	      9.16048522	    -10.86551192	     -8.82962974	     27.19330755	     -5.87321496	     -4.62562428	     23.48982041	     23.48982041	      6.16412556	    -11.58101027	      1.51676770	     -9.69934832	      5.13295338	      4.13506475	     33.98974900	    -14.98368389	      0.46672686	    116.15642706	     44.53156205	      0.00000000	      0.00000000	    -16.06593514	     -8.55473763	     12.80565552	     32.41702051	     44.04669529	      0.00000000	      0.00000000
     14.22157143	     -6.59558526	     -4.07165506	      0.51991986	      1.04349506	      0.92340028	      0.42734045	     11.35075212	     -5.47648294	    -11.01278177	     44.88377899	     44.88377899	      6.94861651	    -13.31039940	     -8.48194188	     26.49369055	     -5.83834652	     -5.05341169	     23.01890914	     23.01890914	      6.41225081	    -11.51736880	      1.16009671	     -9.62629560	      5.08406724	      4.18528022	     31.38477733	    -15.10118945	      0.09014094	    114.46881821	     44.58716046	      0.00000000	      0.00000000	    -14.78027177	     -8.83941253	     12.28469968	     32.96327199	     44.15209546	      0.00000000	      0.00000000
     14.23292857	     -6.53479671	     -4.02383648	      0.16657633	      1.04250253	      0.92446631	      0.42586741	     13.56313887	     -5.77190695	     -9.97102520	     48.81220757	     48.81220757	      4.93116382	    -15.10447082	     -7.89675016	     25.68533399	     -5.80933021	     -5.45599094	     22.71274278	     22.71274278	      6.65882206	    -11.50360024	      0.81585792	     -9.77451524	      5.04285110	      4.12627872	     28.83189678	    -14.97520975	     -0.06359733	    112.81590910	     44.63377507	      0.00000000	      0.00000000	    -13.35572492	     -9.14389038	     11.78938319	     33.61770944	     44.25100948	      0.00000000	      0.00000000
     14.24428571	     -6.55235112	     -4.09226163	     -0.20326565	      1.04132310	      0.92523922	      0.42464763	     16.01460981	     -5.74475725	     -8.75485905	     52.76826731	     52.76826731	      3.97084618	    -16.19590693	     -4.25127906	     24.94131606	     -5.89176709	     -5.74825332	     22.29042623	     22.29042623	      6.46435829	    -11.70629208	     -0.71579405	     -9.83876136	      5.09410049	      4.15742844	     26.30535896	    -14.38842126	     -1.85459896	    110.06862786	     44.77636238	      0.00000000	      0.00000000	    -12.08758244	     -9.29164391	      9.53002607	     34.95684091	     44.64084567	      0.00000000	      0.00000000
     14.25564286	     -6.49442909	     -4.04915265	     -0.58755016	      1.04010118	      0.92590375	      0.42344955	     18.42811857	     -5.85985523	     -7.69523428	     56.55366217	     56.55366217	      3.48327917	    -16.47662900	     -0.27707179	     24.19304845	     -5.86129857	     -6.06399178	     22.03154732	     22.03154732	      6.43109322	    -11.96391236	     -1.61416870	     -9.98547445	      5.06365685	      3.75255209	     24.13279611	    -14.19346510	     -1.46662671	    107.62346766	     44.84130932	      0.00000000	      0.00000000	    -10.95336251	     -9.36865812	      7.20874606	     35.98532013	     45.04813054	      0.00000000	      0.00000000
     14.26700000	     -6.40682191	     -3.99424035	     -0.95107674	      1.03880805	      0.92646191	      0.42234330	     20.64160188	     -5.92966772	     -6.73156430	     59.70037956	     59.70037956	      2.12880955	    -16.96495966	      0.02107562	     23.49907597	     -5.82501162	     -6.37598778	     21.93677875	     21.93677875	      6.80540593	    -12.01248239	     -1.76473784	    -10.18831359	      5.03404456	      3.62840690	     21.65581855	    -14.33588944	     -1.26261247	    105.61724499	     44.88735559	      0.00000000	      0.00000000	     -9.31702344	     -9.82455699	      6.83717739	     36.78716045	     45.12583978	      0.00000000	      0.00000000
     14.27835714	     -6.19661915	     -3.97233304	     -1.24673158	      1.03752224	      0.92712171	      0.42127384	     22.63238150	     -5.91635363	     -5.88803817	     62.42651068	     62.42651068	      1.05043391	    -17.20531621	      0.29411228	     22.75123818	     -5.80701393	     -6.61800767	     21.96930961	     21.96930961	      7.18424166	    -12.08556093	     -1.92987711	    -10.53667508	      5.05618407	      3.41023805	     19.25224604	    -14.21117690	     -1.08381164	    103.56066202	     44.93566618	      0.00000000	      0.00000000	     -7.56066781	    -10.35133713	      6.50346863	     37.65872598	     45.19659072	      0.00000000	      0.00000000
     14.28971429	     -6.12886671	     -4.00566065	     -1.57857480	      1.03616869	      0.92758369	      0.42033462	     24.75730102	     -5.75864173	     -5.06082451	     64.80621947	     64.80621947	      0.40956283	    -17.20159240	      0.98447582	     22.11951142	     -5.86354842	     -6.89640544	     21.92429299	     21.92429299	      7.56827457	    -12.08305938	     -2.08716024	    -10.61762517	      5.10380536	      3.55059570	     17.01356723	    -14.53755638	     -1.66966264	     99.89596468	     45.05941386	      0.00000000	      0.00000000	     -5.84398488	    -10.81883663	      6.02511272	     38.98914219	     45.29093913	      0.00000000	      0.00000000
     14.30107143	     -5.85703818	     -4.00677677	     -1.82436116	      1.03496112	      0.92825820	      0.41935291	     26.51070425	     -5.65543296	     -4.38220287	     66.67487435	     66.67487435	     -0.08710285	    -17.07035727	      1.14118139	     21.32807122	     -5.85517257	     -7.12340849	     21.99577748	     21.99577748	      7.99082342	    -12.10049979	     -2.22245301	    -11.01114907	      5.18525079	      3.15285637	     14.72402613	    -14.25446355	     -1.54116547	     97.65538516	     45.11496776	      0.00000000	      0.00000000	     -4.11393205	    -11.43871900	      5.71508195	     39.93805128	     45.35574857	      0.00000000	      0.00000000
     14.31242857	     -5.68624278	     -4.05678919	     -2.11596538	      1.03369392	      0.92888515	      0.41853852	     28.31767647	     -5.48044763	     -3.82317612	     68.14453581	     68.14453581	     -0.01341599	    -16.72547647	      2.38594977	     20.58663855	     -5.90763327	     -7.35295548	     21.96199697	     21.96199697	      8.49895581	    -12.03655781	     -2.17170185	    -11.17099198	      5.23279307	      2.64447608	     13.47653285	    -13.68519864	     -2.32385068	     91.94127186	     45.30465545	      0.00000000	      0.00000000	     -2.95084396	    -12.14134920	      5.15528595	     42.21893276	     45.49926631	      0.00000000	      0.00000000
     14.32378571	     -5.47657053	     -4.07226195	     -2.39000670	      1.03254501	      0.92959800	      0.41767125	     29.90233231	     -5.37733499	     -3.36632497	     69.02871210	     69.02871210	     -0.22018419	    -16.56202731	      2.24324278	     19.77376856	     -5.90198327	     -7.60373849	     21.87808575	     21.87808575	      8.90833615	    -12.02468965	     -2.22119683	    -11.43734025	      5.32757702	      2.72724916	     11.16642961	    -14.10995773	     -2.30469901	     88.93341141	     45.38701349	      0.00000000	      0.00000000	     -0.91429607	    -12.68029145	      4.83916900	     43.41215769	     45.57454776	      0.00000000	      0.00000000
     14.33514286	     -5.26746620	     -4.11392816	     -2.68787305	      1.03140555	      0.93038591	      0.41691989	     31.34069444	     -5.25957263	     -3.04947440	     69.39913613	     69.39913613	     -0.29433358	    -16.46266781	      2.06896835	     18.89983959	     -5.91793777	     -7.85814257	     21.69515919	     21.69515919	      9.34410854	    -11.96237867	     -2.21591424	    -11.74517429	      5.40405727	      2.89024804	      9.09533642	    -14.43216289	     -2.58657277	     85.15884004	     45.50372381	      0.00000000	      0.00000000	      1.09822305	    -13.18553401	      4.62477129	     44.75082867	     45.63916690	      0.00000000	      0.00000000
